<svg t="1782271183017" class="icon" viewBox="0 0 1024 1024" version="1.1" xmlns="http://www.w3.org/2000/svg" p-id="12488" width="200" height="200"><path d="M269.27407445 803.27111111a48.54518557 48.54518557 0 0 1-48.54518556-48.54518556v-194.18073998a48.54518557 48.54518557 0 0 1 97.09036999 0v194.18073998a48.54518557 48.54518557 0 0 1-48.54518443 48.54518556m242.72592555 0a48.54518557 48.54518557 0 0 1-48.54518557-48.54518556V269.27407445a48.54518557 48.54518557 0 0 1 97.09037114 0v485.4518511a48.54518557 48.54518557 0 0 1-48.54518557 48.54518556m242.72592555 0a48.54518557 48.54518557 0 0 1-48.54518443-48.54518556v-291.27111112a48.54518557 48.54518557 0 0 1 97.09036999 0v291.27111112a48.54518557 48.54518557 0 0 1-48.54518556 48.54518556" fill="#FFFFFF" p-id="12489"></path><path d="M851.81629667 26.54814777H172.18370333a145.63555555 145.63555555 0 0 0-145.63555556 145.63555556v679.63259334a145.63555555 145.63555555 0 0 0 145.63555556 145.63555556h679.63259334a145.63555555 145.63555555 0 0 0 145.63555556-145.63555556V172.18370333a145.63555555 145.63555555 0 0 0-145.63555556-145.63555556M317.81925888 754.72592555a48.54518557 48.54518557 0 0 1-97.09036999 0v-194.18073998a48.54518557 48.54518557 0 0 1 97.09036999 0z m242.72592669 0a48.54518557 48.54518557 0 0 1-97.09037114 0V269.27407445a48.54518557 48.54518557 0 0 1 97.09037114 0z m242.72592554 0a48.54518557 48.54518557 0 0 1-97.09036999 0v-291.27111112a48.54518557 48.54518557 0 0 1 97.09036999 0z" fill="#FF0000" p-id="12490"></path></svg>
